<svg width="26" height="29" viewBox="0 0 26 29" fill="none" xmlns="http://www.w3.org/2000/svg">
    <path d="M12.8334 0.75C5.92712 0.75 0.333374 3.54687 0.333374 7C0.333374 10.4531 5.92712 13.25 12.8334 13.25C19.7396 13.25 25.3334 10.4531 25.3334 7C25.3334 3.54687 19.7396 0.75 12.8334 0.75Z" fill="white"/>
    <path d="M0.333374 10.125V14.8125C0.333374 18.2656 5.92712 21.0625 12.8334 21.0625C13.6971 21.0625 14.5403 21.0188 15.3545 20.9355C16.3746 18.5433 18.7478 16.8664 21.5127 16.8664L24.6434 16.8664C25.0905 16.2232 25.3334 15.5321 25.3334 14.8125V10.125C25.3334 13.5781 19.7396 16.375 12.8334 16.375C5.92712 16.375 0.333374 13.5781 0.333374 10.125Z" fill="white"/>
    <path d="M12.8334 24.1875C13.5099 24.1875 14.1737 24.1607 14.821 24.109V28.7965C14.1737 28.8482 13.5099 28.875 12.8334 28.875C5.92712 28.875 0.333374 26.0781 0.333374 22.625V17.9375C0.333374 21.3906 5.92712 24.1875 12.8334 24.1875Z" fill="white"/>
    <path d="M17 27.4143V25.6616L22.1694 20.4922L23.9221 22.2449L18.7527 27.4143H17Z" fill="white"/>
    <path d="M25.2776 20.2304C25.4599 20.4127 25.4599 20.7072 25.2776 20.8895L24.4223 21.7448L22.6695 19.9921L23.5249 19.1367C23.7071 18.9544 24.0016 18.9544 24.1839 19.1367L25.2776 20.2304Z" fill="white"/>
</svg>
