<svg width="20" height="28" viewBox="0 0 20 28" fill="none" xmlns="http://www.w3.org/2000/svg">
    <path d="M16.9453 12.3159C17.0707 12.245 17.3213 12.1426 17.4936 12.0875C17.6659 12.0323 17.9401 11.985 18.1045 11.985C18.2612 11.9772 18.5432 12.0166 18.7311 12.0559C18.9113 12.1032 19.2011 12.2529 19.3656 12.3947C19.5301 12.5286 19.7415 12.7886 19.8355 12.9619C19.9687 13.214 20 13.4188 20 13.986C20 14.5925 19.9687 14.758 19.7807 15.144C19.6632 15.3961 19.4047 15.7821 19.2011 16.0026C18.9896 16.2232 18.598 16.5383 18.316 16.7116C18.034 16.8771 17.5249 17.1055 17.1803 17.2158C16.8357 17.334 16.4754 17.4127 16.3814 17.397C16.2326 17.3733 16.2796 17.3103 16.726 16.9401C17.0158 16.7037 17.4309 16.2784 17.6581 15.9948C17.8852 15.7112 18.175 15.2543 18.3082 14.9707C18.4413 14.6871 18.5745 14.3011 18.598 14.1041C18.645 13.8205 18.6137 13.6709 18.4648 13.3636C18.3552 13.1352 18.1594 12.891 18.0027 12.7886C17.8461 12.6783 17.5563 12.5837 17.337 12.5601C17.1255 12.5365 16.8905 12.4971 16.8278 12.4735C16.7417 12.4498 16.773 12.4026 16.9453 12.3159Z" fill="white"/>
    <path d="M0.622448 20.8631C0.771265 20.745 1.08456 20.5953 1.31954 20.5323C1.55451 20.4693 1.92264 20.4141 2.14195 20.4141C2.35343 20.4062 2.72938 20.4377 2.96436 20.485C3.19933 20.5323 3.4813 20.6268 3.58312 20.7056C3.68495 20.7765 3.78677 20.8868 3.7946 20.934C3.8181 21.0049 3.70061 21.0365 3.39515 21.0365C3.16017 21.0365 2.84687 21.0837 2.70589 21.1389C2.57274 21.194 2.37692 21.3279 2.2751 21.4382C2.18111 21.5406 2.10279 21.7218 2.10279 21.84C2.10279 21.9818 2.18111 22.1236 2.31426 22.2417C2.43958 22.3441 2.74505 22.5017 3.00352 22.6041C3.26199 22.6986 3.7711 22.8483 4.13923 22.9271C4.50736 23.0059 5.08696 23.1161 5.43159 23.1634C5.77622 23.2028 6.67695 23.2737 7.42887 23.321C8.27478 23.3604 9.37133 23.3604 10.2877 23.3131C11.1023 23.2737 12.144 23.187 12.5983 23.124C13.0526 23.0531 13.7653 22.9113 14.1805 22.8089C14.6034 22.6986 15.1517 22.5174 15.3945 22.4072C15.6451 22.2969 15.9663 22.1236 16.0994 22.0133C16.2404 21.9109 16.4284 21.706 16.5145 21.5643C16.6085 21.4146 16.6712 21.1704 16.6712 20.6426L16.8827 20.7529C17.008 20.8159 17.1803 20.9498 17.2743 21.0522C17.3761 21.1467 17.4779 21.3594 17.5014 21.5091C17.5328 21.6982 17.5014 21.8951 17.3996 22.1393C17.3135 22.3441 17.102 22.612 16.8983 22.7774C16.7104 22.935 16.3814 23.1555 16.1621 23.2658C15.9506 23.3682 15.5277 23.5494 15.2222 23.6597C14.9246 23.77 14.2353 23.9512 13.6949 24.0615C13.1544 24.1796 12.2772 24.3293 11.7367 24.3923C11.1963 24.4553 10.0528 24.5262 9.19118 24.5578C8.25128 24.5814 7.13907 24.5656 6.41065 24.5105C5.74489 24.4632 4.758 24.3451 4.21756 24.2584C3.67711 24.1639 2.94086 24.0063 2.57274 23.9039C2.20461 23.7936 1.67983 23.5967 1.39786 23.4706C1.11589 23.3367 0.747768 23.1161 0.583286 22.9822C0.418804 22.8404 0.207327 22.5883 0.121169 22.415C0.0115148 22.1866 -0.0198152 22.0133 0.0115148 21.7848C0.0428447 21.6115 0.129002 21.3831 0.207327 21.2728C0.293484 21.1625 0.481463 20.9813 0.622448 20.8631Z" fill="white"/>
    <path d="M17.9166 24.4396C18.316 24.2348 18.9348 23.8488 19.2872 23.5809C19.6319 23.3131 19.9452 23.0925 19.9765 23.0846C20 23.0846 20.0078 23.1792 19.9843 23.2973C19.9687 23.4234 19.8512 23.6912 19.7337 23.9118C19.6005 24.1402 19.2951 24.4947 18.9739 24.7626C18.6763 25.0147 18.1124 25.377 17.7286 25.5661C17.3448 25.7552 16.6555 26.0387 16.2012 26.1805C15.747 26.3302 15.042 26.5272 14.6348 26.6138C14.2275 26.7083 13.4834 26.8423 12.9899 26.9132C12.4338 26.9998 11.4234 27.0628 10.3269 27.0786C8.83089 27.1101 8.38443 27.0865 7.38971 26.9447C6.73961 26.8501 5.89371 26.7083 5.50991 26.6217C5.12612 26.535 4.50736 26.3775 4.13923 26.2672C3.7711 26.1569 3.43431 26.0309 3.39515 25.9915C3.34293 25.9442 3.34293 25.9206 3.39515 25.9206C3.43431 25.9206 3.85726 25.9915 4.33504 26.0703C4.80499 26.1569 5.63523 26.2672 6.17568 26.3145C6.78661 26.3775 7.89882 26.3932 9.15202 26.3696C10.648 26.3381 11.4234 26.2908 12.2458 26.1569C12.8489 26.0624 13.8672 25.8497 14.5173 25.6843C15.1595 25.5188 16.0289 25.2589 16.4362 25.0934C16.8435 24.9359 17.5093 24.6444 17.9166 24.4396Z" fill="white"/>
    <path d="M11.7994 2.2089C11.956 1.89379 12.003 1.65746 11.9952 1.34236L11.9874 0.909088L12.144 1.10603C12.2302 1.21632 12.3477 1.49991 12.4182 1.73624C12.4965 2.02771 12.5278 2.31131 12.4887 2.60278C12.4652 2.83911 12.3633 3.20936 12.2615 3.42993C12.1597 3.64263 11.9169 4.03651 11.7211 4.29647C11.5253 4.55643 10.8752 5.22603 10.2799 5.78535C9.67679 6.34466 9.0267 7.00638 8.81522 7.24271C8.61158 7.48692 8.38443 7.8099 8.31394 7.95957C8.24345 8.10925 8.18862 8.37709 8.18079 8.5504C8.18079 8.77885 8.29044 9.0782 8.59591 9.65326C8.82305 10.0865 9.19901 10.7325 9.43399 11.087C9.66896 11.4494 9.84128 11.7566 9.81778 11.7802C9.79428 11.8039 9.51231 11.6306 9.17551 11.4021C8.84655 11.1815 8.32961 10.7798 8.02414 10.5198C7.71867 10.252 7.29572 9.82657 7.08424 9.57449C6.8806 9.31453 6.61429 8.92064 6.51247 8.70795C6.40282 8.48737 6.29316 8.15651 6.26966 7.95957C6.23834 7.71537 6.26967 7.47904 6.37149 7.2112C6.47331 6.93548 6.67695 6.65976 7.06858 6.26588C7.37404 5.96653 8.25911 5.2733 9.0267 4.72974C9.79428 4.18619 10.6872 3.49295 11.0083 3.1936C11.3999 2.83123 11.6662 2.49249 11.7994 2.2089Z" fill="white"/>
    <path d="M14.1021 4.84791C14.4154 4.7455 14.9559 4.6037 15.3005 4.54068C15.6451 4.47766 15.9506 4.42251 15.9819 4.42251C16.0211 4.41464 16.0446 4.43827 16.0446 4.46978C16.0524 4.50917 15.7391 4.73762 15.3632 4.98183C14.9794 5.22603 14.3841 5.6593 14.0238 5.9429C13.6714 6.23437 13.2719 6.6125 13.1466 6.79368C12.9664 7.05364 12.9038 7.21908 12.9038 7.48692C12.9116 7.74688 13.0056 8.04623 13.2641 8.58978C13.4677 8.99942 13.6635 9.49571 13.7027 9.69265C13.7575 9.96049 13.7497 10.1496 13.6557 10.4568C13.5695 10.7483 13.4364 10.9767 13.2014 11.2052C13.0134 11.3942 12.6766 11.6306 12.4573 11.7408C12.2302 11.8511 12.0344 11.9141 12.0109 11.8748C11.9874 11.8432 12.0814 11.6699 12.2067 11.4809C12.3398 11.2997 12.473 11.0476 12.5121 10.9137C12.5435 10.7798 12.5591 10.5513 12.5356 10.4016C12.5122 10.2441 12.3085 9.87384 12.0735 9.5351C11.8386 9.21212 11.5723 8.78672 11.4783 8.58978C11.3529 8.32982 11.3059 8.10137 11.3059 7.72324C11.3138 7.37663 11.3686 7.08516 11.4861 6.81732C11.5879 6.58099 11.8386 6.24225 12.1049 5.98229C12.3555 5.73808 12.7785 5.43085 13.0448 5.29693C13.3189 5.15513 13.7967 4.95819 14.1021 4.84791Z" fill="white"/>
    <path d="M4.45253 12.245C4.77366 12.182 5.35327 12.0953 5.74489 12.0638C6.12868 12.0244 6.63779 11.9929 6.8571 11.985C7.09208 11.985 7.27222 12.0087 7.27222 12.0559C7.27222 12.1032 7.21739 12.1347 7.15474 12.1347C7.09207 12.1347 6.76311 12.2371 6.42631 12.3632C6.09735 12.4971 5.72922 12.6704 5.6039 12.7571C5.48642 12.8516 5.39243 12.9776 5.39243 13.0406C5.39243 13.1115 5.53341 13.1982 5.76055 13.2691C5.97203 13.3321 6.62996 13.4188 7.23306 13.4739C7.96931 13.5369 9.17552 13.5606 10.9143 13.5291C12.332 13.5054 13.7653 13.4503 14.0865 13.403C14.4076 13.3636 14.8697 13.3085 15.5355 13.2297L15.3397 13.3951C15.23 13.4897 14.9167 13.7024 14.6348 13.8678C14.2275 14.1041 13.969 14.1908 13.3424 14.2932C12.9116 14.3641 12.0814 14.4744 11.5018 14.5453C10.8673 14.6162 9.55147 14.6792 8.21212 14.7028L8.19563 14.7031C6.01104 14.7343 5.97949 14.7348 5.83105 14.9155C5.72139 15.0573 5.70573 15.1203 5.77622 15.2621C5.82321 15.3646 5.9642 15.4985 6.09735 15.5615C6.22267 15.6245 6.5673 15.7427 6.8571 15.8136C7.25656 15.9081 7.75784 15.9396 8.83872 15.9475C9.82561 15.9475 10.5619 15.9081 11.1493 15.8136C11.6192 15.7427 12.2537 15.6088 13.1074 15.3724L13.734 15.7742L13.7349 15.7748C14.0793 15.9952 14.4233 16.2154 14.4938 16.2626C14.5721 16.3099 14.6348 16.365 14.6348 16.3886C14.6348 16.4123 14.2901 16.5462 13.875 16.688C13.452 16.8298 12.7863 17.011 12.4025 17.0898C12.0109 17.1764 11.3451 17.2867 10.9143 17.3418C10.4052 17.397 9.56714 17.4206 8.52542 17.3891C7.31138 17.3576 6.72395 17.3103 6.13651 17.1764C5.70573 17.0898 5.09479 16.8928 4.78149 16.7431C4.47603 16.5935 4.16273 16.3886 4.09224 16.2862C4.01391 16.1681 3.99041 16.0342 4.02174 15.8766C4.05307 15.7427 4.20972 15.5063 4.38204 15.3409C4.56218 15.1676 4.88332 14.9785 5.66656 14.695L5.27494 14.6319C5.05563 14.6004 4.60135 14.5138 4.25672 14.4507C3.91209 14.3877 3.41864 14.2302 3.16017 14.1041C2.9017 13.986 2.64323 13.7969 2.58057 13.6945C2.51791 13.5921 2.49441 13.4188 2.52574 13.2927C2.54924 13.1746 2.66672 12.9934 2.78421 12.8752C2.90953 12.7649 3.19933 12.6074 3.43431 12.5207C3.66928 12.4262 4.1314 12.308 4.45253 12.245Z" fill="white"/>
    <path d="M5.72139 18.0272C5.86238 17.8933 6.12085 17.72 6.29316 17.6412C6.46548 17.5624 6.72395 17.4915 6.8571 17.4915C7.07641 17.4915 7.10774 17.5151 7.07641 17.6491C7.05291 17.7357 7.05291 17.8696 7.06858 17.9405C7.09208 18.0193 7.25656 18.1532 7.44454 18.232C7.71084 18.3581 8.01631 18.3896 8.91704 18.4211C9.81778 18.4447 10.2486 18.4211 10.9927 18.295C11.5096 18.2005 12.1754 18.0429 13.0291 17.7594L13.828 18.2793C14.2666 18.5629 14.6348 18.815 14.6348 18.8465C14.6348 18.8859 14.4311 19.0119 14.1805 19.1379C13.9377 19.264 13.3972 19.4688 12.9899 19.6027C12.5826 19.7366 11.8542 19.9021 11.3843 19.9808C10.7577 20.0911 10.1311 20.1226 9.07369 20.1226C8.01631 20.1226 7.46803 20.0833 7.03725 19.9887C6.71612 19.9099 6.254 19.7603 6.01903 19.6342C5.73706 19.4924 5.54386 19.3296 5.43942 19.1458C5.3141 18.9095 5.29844 18.8307 5.37676 18.5707C5.43159 18.4132 5.58824 18.169 5.72139 18.0272Z" fill="white"/>
</svg>
