<svg width="26" height="22" viewBox="0 0 26 22" fill="none" xmlns="http://www.w3.org/2000/svg">
    <path d="M8.07746 0.478665C8.35236 0.473055 8.70579 0.512325 8.89092 0.562815C9.06483 0.607695 9.36216 0.703066 9.54729 0.764776C9.73242 0.832097 10.0971 0.989177 10.3607 1.11821C10.7815 1.32578 10.8993 1.35944 11.3706 1.3931C11.6623 1.41554 12.083 1.46042 12.2962 1.48847C12.5094 1.51652 12.9021 1.59506 13.1658 1.65677C13.4294 1.72409 13.9343 1.90361 14.2878 2.05508C14.6412 2.20655 15.1461 2.4534 15.4098 2.60487C15.6734 2.75073 16.1166 3.05367 16.3915 3.26685C16.6664 3.48003 17.0535 3.82224 17.2386 4.01298C17.4294 4.20933 17.7043 4.5235 17.8557 4.70863C18.0016 4.89376 18.3494 5.38744 18.6243 5.80258C18.8992 6.21773 19.3424 7.01435 19.6173 7.56974C19.8922 8.12513 20.24 8.92176 20.3971 9.3369C20.5486 9.75204 20.7617 10.3748 21.0479 11.3397L21.6369 11.6482C21.9623 11.8165 22.4279 12.0858 22.6748 12.2541C22.9216 12.4224 23.348 12.7478 23.6229 12.9834C23.8977 13.2134 24.2848 13.5949 24.4812 13.8249C24.6832 14.0549 25.0702 14.5542 25.3451 14.9301C25.62 15.3116 25.8388 15.6314 25.8332 15.6426C25.822 15.6538 25.4237 15.7379 24.9468 15.8333C24.47 15.9343 23.9426 16.0521 23.4882 16.1811L23.6621 16.4168C23.7575 16.5514 24.0436 16.9722 24.2961 17.3592C24.5541 17.7463 24.8739 18.2625 25.0141 18.5093C25.1544 18.7561 25.3844 19.1937 25.5303 19.4742C25.6705 19.7603 25.7771 20.0128 25.7603 20.0352C25.7434 20.0633 25.5359 19.8894 25.2946 19.6537C25.059 19.4237 24.6607 19.0703 24.4139 18.874C24.167 18.6776 23.5892 18.2681 23.1236 17.9595C22.6635 17.651 22.0801 17.2414 21.8333 17.0507C21.5864 16.86 21.1881 16.4953 20.9525 16.2428C20.7113 15.996 20.5149 15.766 20.5149 15.7323C20.5149 15.6987 20.6327 15.5753 20.7842 15.4574C20.93 15.3396 21.2386 15.1377 21.4686 15.0143C21.6986 14.8908 22.0408 14.745 22.226 14.6889C22.4111 14.6328 22.585 14.5767 22.6074 14.5598C22.6355 14.543 22.5177 14.4084 22.355 14.2681C22.1923 14.1223 21.8837 13.8866 21.665 13.7408C21.4462 13.5949 21.0703 13.3705 20.8235 13.2471C20.5766 13.1237 20.1839 12.9554 19.5331 12.7141L19.4322 12.3046C19.3817 12.0746 19.247 11.5865 19.1348 11.2163C19.0226 10.846 18.7926 10.1896 18.6243 9.75765C18.456 9.32568 18.1306 8.6076 17.9006 8.1588C17.6762 7.70999 17.334 7.10411 17.1433 6.81239C16.9525 6.52067 16.6159 6.04381 16.3859 5.7577C16.1559 5.4772 15.7856 5.0845 15.5556 4.88815C15.3312 4.69741 14.9441 4.42252 14.7029 4.27665C14.4561 4.13079 14.0073 3.89517 13.6987 3.75492C13.3902 3.62028 12.947 3.45759 12.717 3.39588C12.4869 3.33978 12.0213 3.26124 11.6791 3.22758C11.3425 3.19392 10.9161 3.16587 10.7422 3.16587C10.4617 3.16587 10.3439 3.1266 9.90072 2.89098C9.61461 2.73951 9.19947 2.55438 8.98629 2.47584C8.77311 2.39729 8.47017 2.31314 8.31309 2.2907C8.12234 2.26826 8.02136 2.27387 7.99331 2.31875C7.96526 2.35241 7.98209 2.46462 8.02136 2.55999C8.06624 2.66097 8.32992 3.05928 8.62164 3.44637C8.90775 3.83346 9.19386 4.2486 9.25557 4.37203C9.31728 4.49545 9.46875 4.92181 9.58656 5.32573C9.70998 5.72965 9.8895 6.23455 9.99609 6.44774C10.1027 6.66092 10.3832 7.13777 11.062 8.1588L10.9386 8.75907C10.9182 8.86101 10.8947 8.98456 10.8705 9.11758H9.04464C9.07278 8.94184 9.10546 8.7455 9.14337 8.52345L8.89092 8.13074C8.75067 7.91756 8.5431 7.5473 8.42529 7.31729C8.30748 7.08728 8.10551 6.55994 7.97087 6.1504C7.83623 5.74648 7.72403 5.37061 7.72403 5.32573C7.72403 5.28085 7.45475 4.88254 7.12937 4.43935C6.80399 4.00176 6.48983 3.55296 6.43373 3.44637C6.37763 3.33978 6.28787 3.09855 6.23737 2.91342C6.16444 2.66658 6.14761 2.47584 6.17566 2.21216C6.19249 1.98215 6.26542 1.72409 6.37202 1.51091C6.46739 1.31456 6.63569 1.08455 6.77594 0.961127C6.91058 0.843317 7.15181 0.691846 7.30328 0.613306C7.53329 0.506715 7.67354 0.478665 8.07746 0.478665Z" fill="white"/>
    <path d="M11.5557 4.06908C11.724 4.06347 11.8081 4.10274 11.9933 4.27665C12.1223 4.38886 12.2738 4.58521 12.3355 4.70863C12.4196 4.87132 12.4365 4.98913 12.4084 5.12938C12.386 5.23597 12.3243 5.43232 12.2625 5.56696C12.2064 5.69599 12.1391 5.80258 12.1167 5.80258C12.0886 5.80819 11.8025 5.43793 11.4715 4.98913C10.9161 4.24299 10.8769 4.17567 10.9947 4.14762C11.0347 4.14095 11.0887 4.13031 11.1388 4.12041C11.1729 4.11368 11.2053 4.10729 11.2303 4.10274C11.292 4.08591 11.4379 4.07469 11.5557 4.06908Z" fill="white"/>
    <path fill-rule="evenodd" clip-rule="evenodd" d="M2.5023 19.921C3.56989 20.9826 5.01166 21.5595 6.50169 21.52H12.9229C14.363 21.4816 15.7313 20.871 16.7366 19.8174C17.7419 18.7644 18.3046 17.3515 18.3046 15.8807C18.3046 14.41 17.7419 12.9976 16.7366 11.944C15.7313 10.8904 14.363 10.2798 12.9229 10.2415H6.50169C5.01166 10.202 3.56989 10.7789 2.5023 11.8404C1.43527 12.9026 0.833313 14.3596 0.833313 15.8807C0.833313 17.4024 1.43527 18.8594 2.5023 19.921ZM15.3812 18.5081C14.6856 19.1959 13.7459 19.5662 12.7776 19.5347H6.64306C5.7146 19.5038 4.83439 19.1061 4.18867 18.4251C3.5424 17.7435 3.18111 16.833 3.18111 15.8847C3.18111 14.9365 3.5424 14.0254 4.18867 13.3444C4.83439 12.6634 5.7146 12.2651 6.64306 12.2347H12.7776C13.7459 12.2027 14.6856 12.573 15.3812 13.2608C16.0769 13.9493 16.4701 14.8958 16.4701 15.8847C16.4701 16.8736 16.0769 17.8202 15.3812 18.5081Z" fill="white"/>
</svg>
