<svg width="25" height="24" viewBox="0 0 25 24" fill="none" xmlns="http://www.w3.org/2000/svg">
    <path fill-rule="evenodd" clip-rule="evenodd" d="M7.96098 0.544995C8.40381 0.538483 8.73593 0.577556 9.06806 0.668727C9.32203 0.733849 9.69974 0.85107 9.89511 0.916192C10.0905 0.987826 10.4747 1.15063 10.7417 1.28739C11.0087 1.42415 11.4776 1.69766 11.7771 1.89954C12.0767 2.10142 12.3567 2.29678 12.4088 2.32934C12.4696 2.37276 12.5304 2.37276 12.5912 2.32934C12.6433 2.29678 12.8907 2.12747 13.1317 1.95815C13.3726 1.79534 13.822 1.52183 14.1281 1.35902C14.4341 1.19622 14.8574 1.00085 15.0723 0.929216C15.2872 0.85107 15.678 0.733849 15.9385 0.668727C16.2445 0.584068 16.6222 0.538483 17.013 0.538483C17.4884 0.538483 17.7163 0.571044 18.1005 0.701288C18.3675 0.792459 18.7322 0.948753 18.908 1.04644C19.0839 1.14412 19.403 1.41112 19.6244 1.64556C19.8393 1.88 20.1128 2.24469 20.23 2.45959C20.3472 2.67449 20.497 3.02615 20.5752 3.24106C20.6468 3.45596 20.751 3.86623 20.8096 4.15277C20.8682 4.46536 20.9073 5.03843 20.9073 5.58546C20.9073 6.0869 20.8877 6.673 20.8226 7.27864L21.1417 7.40888C21.311 7.48703 21.7734 7.73449 22.1641 7.96242C22.6265 8.23593 23.0759 8.58108 23.4601 8.93925C23.7857 9.24533 24.1829 9.70119 24.3523 9.94865C24.5281 10.2222 24.7234 10.6389 24.8342 10.9906C24.997 11.4986 25.0165 11.6483 24.9905 12.1302C24.9709 12.5014 24.8993 12.8466 24.7886 13.1722C24.6909 13.4392 24.4955 13.8364 24.3588 14.0514C24.2155 14.2663 23.8573 14.6765 23.5578 14.9631C23.2582 15.2496 22.7828 15.6403 22.4963 15.8292C22.2097 16.018 21.7148 16.2981 20.8291 16.7214L20.8682 17.1121C20.8877 17.327 20.9073 17.9261 20.9073 18.4471C20.9073 19.1114 20.8682 19.5672 20.7836 19.9775C20.7119 20.2966 20.5817 20.7524 20.484 20.9869C20.3928 21.2213 20.217 21.5665 20.0998 21.7618C19.9891 21.9507 19.709 22.2828 19.4876 22.4912C19.2597 22.6996 18.9406 22.9471 18.7713 23.0317C18.5954 23.1164 18.2698 23.2466 18.0354 23.3248C17.6772 23.442 17.4949 23.4615 16.8958 23.442C16.4073 23.429 16.0101 23.3769 15.6584 23.2792C15.3719 23.1945 14.8184 22.9731 14.4211 22.7777C14.0239 22.5889 13.4703 22.2698 13.1838 22.0679C12.8972 21.866 12.6172 21.6837 12.5651 21.6641C12.513 21.6381 12.4349 21.6446 12.3958 21.6772C12.3502 21.7097 12.0767 21.8986 11.7771 22.1005C11.4776 22.3023 11.0413 22.5628 10.8068 22.6801C10.5724 22.7973 10.2012 22.9601 9.97977 23.0447C9.75184 23.1294 9.34808 23.2596 9.08108 23.3313C8.76198 23.4159 8.38427 23.4615 7.99354 23.4615C7.51164 23.4615 7.28371 23.429 6.89949 23.2987C6.63248 23.2075 6.2678 23.0512 6.09197 22.9536C5.91614 22.8559 5.59053 22.5824 5.3626 22.3349C5.08258 22.0419 4.86116 21.7228 4.68533 21.3581C4.54206 21.065 4.36623 20.5896 4.2946 20.3031C4.21645 20.0166 4.1383 19.476 4.10574 19.0983C4.07969 18.7206 4.07969 18.0303 4.10574 17.568C4.1383 17.1056 4.15133 16.7214 4.14481 16.7149C4.1383 16.7149 3.85176 16.5716 3.51313 16.4023C3.17449 16.2329 2.69259 15.9529 2.43861 15.7901C2.19115 15.6208 1.74832 15.2626 1.46829 14.9956C1.18175 14.7286 0.817067 14.2988 0.654261 14.0514C0.465407 13.7713 0.276552 13.3676 0.165844 13.0094C0.00303866 12.5014 -0.016498 12.3517 0.00955088 11.8698C0.0290876 11.4986 0.100722 11.1534 0.21143 10.8278C0.309113 10.5608 0.50448 10.1636 0.641237 9.94865C0.784506 9.73375 1.14268 9.32348 1.44224 9.03694C1.7418 8.7504 2.19115 8.3792 2.43861 8.20989C2.69259 8.04708 3.17449 7.76705 3.51313 7.59774C3.85176 7.42842 4.1383 7.28515 4.14481 7.28515C4.15133 7.27864 4.1383 6.90093 4.10574 6.43205C4.07969 5.96317 4.07969 5.27938 4.10574 4.90167C4.1383 4.52397 4.21645 3.98345 4.2946 3.69691C4.36623 3.41037 4.54857 2.92847 4.69835 2.6224C4.90023 2.20561 5.08258 1.95164 5.42772 1.60649C5.6817 1.35251 6.02034 1.079 6.18314 0.994339C6.34595 0.90968 6.66505 0.779435 6.89949 0.701288C7.21207 0.59058 7.48559 0.551507 7.96098 0.544995ZM6.96461 2.99359C6.82134 3.11081 6.63248 3.36479 6.54131 3.54713C6.45014 3.73599 6.33292 4.09416 6.28082 4.34813C6.22221 4.61514 6.18314 5.15565 6.18314 5.6636C6.18314 6.31483 6.20268 6.52973 6.2678 6.52973C6.30687 6.52973 6.639 6.4581 6.99717 6.36693C7.35534 6.27575 7.95447 6.15202 8.32566 6.09341L8.99642 5.97619C9.56299 5.27287 9.98628 4.77794 10.2989 4.42628L10.8719 3.7946C10.4421 3.50155 10.0384 3.28013 9.69974 3.11732C9.36111 2.95452 8.90525 2.77869 8.69035 2.72008C8.47544 2.66798 8.15635 2.6224 7.974 2.62891C7.79817 2.62891 7.55071 2.66798 7.43349 2.70705C7.31627 2.75264 7.10137 2.88288 6.96461 2.99359ZM15.3003 3.11732C14.9616 3.28013 14.5579 3.50155 14.4081 3.60574L14.1281 3.7946C15.0137 4.77794 15.437 5.26636 15.6389 5.52034L16.0036 5.97619C16.7981 6.10644 17.3451 6.21714 17.7423 6.30831C18.1396 6.39297 18.5368 6.49066 18.641 6.51671L18.8169 6.56229C18.8169 5.16216 18.7778 4.61514 18.7192 4.34813C18.6671 4.09416 18.5499 3.7425 18.4652 3.56667C18.3805 3.38433 18.1917 3.13686 18.0484 3.01313C17.9117 2.8894 17.6772 2.74613 17.5405 2.70705C17.4037 2.66147 17.1432 2.62891 16.9609 2.62891C16.785 2.62891 16.4725 2.67449 16.2771 2.72659C16.0817 2.77869 15.6389 2.95452 15.3003 3.11732ZM11.9465 5.74826H13.0535C12.6498 5.34451 12.5195 5.22729 12.5 5.22729C12.474 5.22729 12.3437 5.34451 12.207 5.48777L11.9465 5.74826ZM10.4942 7.92986L10.0905 7.96242C9.29599 9.19974 8.9313 9.79236 8.7685 10.0789C8.60569 10.3654 8.31264 10.9125 8.12378 11.2967L7.77864 12C8.31264 13.081 8.60569 13.6346 8.7685 13.9211C8.9313 14.2076 9.29599 14.8003 9.57601 15.2366L10.0905 16.0376C10.7677 16.1092 11.6534 16.1353 12.5 16.1353C13.3401 16.1353 14.2257 16.1092 14.4667 16.0832L14.9095 16.0376C15.6975 14.8003 16.0622 14.2076 16.225 13.9211C16.3878 13.6346 16.6808 13.081 16.8697 12.6968L17.2214 12C16.6808 10.9125 16.3878 10.3654 16.225 10.0789C16.0622 9.79236 15.704 9.20626 15.424 8.77645C14.9486 8.04708 14.8965 7.98847 14.6686 7.9494C14.5318 7.92335 13.7308 7.89079 12.8907 7.87125C12.0441 7.85822 11.2562 7.85171 11.1324 7.87125C11.0022 7.88427 10.7157 7.91032 10.4942 7.92986ZM6.5869 8.6462C6.73668 9.16718 6.79529 9.27138 6.82785 9.2323C6.86041 9.19323 6.97763 9.01089 7.08834 8.82203C7.25766 8.5355 7.27068 8.4834 7.173 8.48991C7.10788 8.48991 6.95158 8.52898 6.82134 8.56806L6.5869 8.6462ZM18.1656 9.2323C18.1982 9.27138 18.2568 9.16718 18.3154 8.97182L18.4066 8.6462C18.0419 8.52898 17.8856 8.48991 17.827 8.48991C17.7293 8.4834 17.7489 8.54201 17.9117 8.82855C18.0224 9.01089 18.1331 9.19974 18.1656 9.2323ZM2.90749 10.5022C2.60142 10.7887 2.39303 11.0557 2.26929 11.3162C2.13905 11.5702 2.07393 11.8111 2.07393 12C2.07393 12.1954 2.13905 12.4298 2.26929 12.6838C2.39303 12.9508 2.60142 13.2113 2.914 13.4978C3.16147 13.7323 3.59779 14.0579 3.87781 14.2272C4.15784 14.3965 4.43786 14.5463 4.48996 14.5723C4.56811 14.6049 4.65277 14.416 4.90023 13.6802C5.06955 13.1657 5.27794 12.5796 5.35609 12.3712L5.49936 11.9935C5.27794 11.4204 5.08257 10.8343 4.93279 10.3264C4.7765 9.81189 4.62021 9.39511 4.58113 9.39511C4.54857 9.39511 4.26203 9.5514 3.94294 9.74026C3.62384 9.92911 3.16147 10.2677 2.90749 10.5022ZM19.5788 12C19.5788 12.1237 19.7676 12.7619 19.9956 13.4197C20.3212 14.3509 20.4319 14.5984 20.51 14.5723C20.5621 14.5528 20.8356 14.3965 21.1222 14.2272C21.4022 14.0579 21.8385 13.7323 22.086 13.4978C22.3921 13.2113 22.6005 12.9508 22.7307 12.6838C22.8544 12.4298 22.9196 12.1954 22.9196 12C22.9196 11.8111 22.8544 11.5702 22.7307 11.3162C22.6005 11.0492 22.3921 10.7887 22.086 10.5022C21.8385 10.2677 21.4022 9.94214 21.1222 9.77282C20.8356 9.6035 20.5621 9.44721 20.51 9.42767C20.4319 9.40162 20.3212 9.64257 19.9956 10.5803C19.7676 11.2381 19.5788 11.8763 19.5788 12ZM6.5869 15.3538C6.95158 15.471 7.11439 15.5101 7.173 15.5101C7.27068 15.5166 7.25766 15.4645 7.08834 15.178C6.97763 14.9891 6.86041 14.8068 6.82785 14.7677C6.79529 14.7286 6.73668 14.8328 6.67807 15.0282L6.5869 15.3538ZM17.7358 15.5036C17.7423 15.5166 17.8986 15.4971 18.0875 15.458L18.4261 15.3864C18.2763 14.9045 18.2177 14.7612 18.2112 14.7482C18.1982 14.7351 18.0875 14.8979 17.9572 15.1063C17.8335 15.3147 17.7293 15.4971 17.7358 15.5036ZM6.28082 19.6519C6.33292 19.9058 6.45014 20.2575 6.5348 20.4333C6.61946 20.6157 6.80831 20.8631 6.95158 20.9869C7.08834 21.1106 7.32278 21.2539 7.45954 21.2929C7.59629 21.3385 7.84376 21.3776 8.00657 21.3776C8.16937 21.3776 8.47544 21.332 8.69035 21.2799C8.90525 21.2213 9.31552 21.0715 9.60206 20.9348C9.8886 20.798 10.2924 20.5766 10.5007 20.4464L10.8719 20.2054C9.98628 19.2221 9.55647 18.7206 9.34157 18.4666C8.97037 18.0108 8.93781 17.9912 8.62523 17.9522C8.4494 17.9326 7.84376 17.8154 7.29022 17.6917C6.73668 17.5745 6.26129 17.4703 6.23524 17.4703C6.20268 17.4703 6.18314 17.861 6.18314 18.3364C6.18314 18.8443 6.22221 19.3849 6.28082 19.6519ZM16.7134 17.9001L16.0036 18.0238C15.437 18.7336 15.0137 19.2221 14.7011 19.5737L14.1281 20.2054C14.5579 20.4985 14.9616 20.7199 15.3003 20.8827C15.6389 21.0455 16.0947 21.2278 16.3097 21.2799C16.5246 21.332 16.8306 21.3776 16.9934 21.3776C17.1562 21.3776 17.4037 21.3385 17.5405 21.2929C17.6772 21.2539 17.9117 21.1106 18.0484 20.9869C18.1917 20.8631 18.3805 20.6157 18.4652 20.4333C18.5499 20.2575 18.6671 19.9058 18.7192 19.6519C18.7778 19.3849 18.8169 18.8443 18.8169 18.3364C18.8169 17.5549 18.8038 17.4703 18.7062 17.4768C18.641 17.4833 18.3284 17.5549 18.0028 17.6331C17.6837 17.7177 17.0976 17.835 16.7134 17.9001ZM12.5 18.8053L13.0535 18.2517H11.9465L12.5 18.8053ZM12.4674 8.88064C12.6823 8.87413 13.034 8.91972 13.2489 8.97833C13.4638 9.03043 13.809 9.17369 14.0239 9.2844C14.2323 9.40162 14.5579 9.6556 14.7467 9.85097C14.9356 10.0463 15.183 10.398 15.2937 10.6324C15.4045 10.8669 15.5347 11.2446 15.5738 11.479C15.6324 11.7851 15.6324 12.0391 15.5868 12.3907C15.5477 12.6903 15.437 13.055 15.3068 13.335C15.1765 13.602 14.9486 13.9406 14.7467 14.149C14.5579 14.3444 14.2323 14.5984 14.0239 14.7156C13.809 14.8263 13.4638 14.9696 13.2489 15.0217C13.034 15.0803 12.6954 15.1259 12.5 15.1259C12.3046 15.1259 11.9725 15.0803 11.7706 15.0282C11.5622 14.9761 11.2366 14.8524 11.0543 14.7547C10.8654 14.6635 10.5463 14.4291 10.351 14.2467C10.1556 14.0579 9.90162 13.7323 9.7844 13.5239C9.67369 13.309 9.53043 12.9638 9.47833 12.7489C9.41972 12.534 9.37413 12.1954 9.37413 12C9.37413 11.8046 9.41972 11.4725 9.47182 11.2706C9.52391 11.0622 9.64765 10.7366 9.74533 10.5543C9.8365 10.3654 10.0709 10.0463 10.2533 9.85097C10.4421 9.6556 10.7677 9.40162 10.9761 9.2844C11.191 9.17369 11.5232 9.03043 11.7185 8.97833C11.9139 8.92623 12.2525 8.88064 12.4674 8.88064Z" fill="white"/>
</svg>
