<svg xmlns="http://www.w3.org/2000/svg" viewBox="51.15 68.75 57.65 13.56">
  <g transform="matrix(1, 0, 0, 1, -0.5532960295677185, -0.808663010597229)" fill="white">
    <path d="M 78.056 76.001 L 78.056 69.561 L 81.526 69.561 Q 82.336 69.561 82.861 69.891 Q 83.386 70.221 83.646 70.776 Q 83.906 71.331 83.906 72.001 Q 83.906 72.691 83.606 73.241 Q 83.306 73.791 82.766 74.106 Q 82.226 74.421 81.486 74.421 L 80.206 74.421 L 80.206 76.001 Z M 80.206 72.751 L 80.986 72.751 Q 81.346 72.751 81.531 72.546 Q 81.716 72.341 81.716 72.001 Q 81.716 71.641 81.546 71.436 Q 81.376 71.231 81.026 71.231 L 80.206 71.231 Z" style="white-space: pre;"/>
    <path d="M 84.293 76.001 L 84.293 69.561 L 86.443 69.561 L 86.443 71.811 L 88.353 71.811 L 88.353 69.561 L 90.503 69.561 L 90.503 76.001 L 88.353 76.001 L 88.353 73.751 L 86.443 73.751 L 86.443 76.001 Z" style="white-space: pre;"/>
    <path d="M 91.096 76.001 L 93.566 69.561 L 95.816 69.561 L 98.296 76.001 L 96.056 76.001 L 95.556 74.721 L 93.826 74.721 L 93.336 76.001 Z M 94.086 73.221 L 95.296 73.221 L 94.686 71.661 Z" style="white-space: pre;"/>
    <path d="M 98.878 76.001 L 98.878 69.561 L 103.888 69.561 L 103.888 71.151 L 101.028 71.151 L 101.028 71.971 L 103.518 71.971 L 103.518 73.601 L 101.028 73.601 L 101.028 74.411 L 103.888 74.411 L 103.888 76.001 Z" style="white-space: pre;"/>
    <path d="M 104.443 76.001 L 104.443 69.561 L 106.593 69.561 L 106.593 74.361 L 109.353 74.361 L 109.353 76.001 Z" style="white-space: pre;"/>
    <path d="M 78.064 82.992 L 78.064 76.552 L 80.214 76.552 L 80.214 82.992 Z" style="white-space: pre;"/>
    <path d="M 81.003 82.992 L 81.003 76.552 L 83.063 76.552 L 84.523 79.522 L 85.963 76.552 L 88.023 76.552 L 88.023 82.992 L 85.873 82.992 L 85.873 80.252 L 85.073 81.892 L 83.953 81.892 L 83.153 80.252 L 83.153 82.992 Z" style="white-space: pre;"/>
    <path d="M 88.819 82.992 L 88.819 76.552 L 93.829 76.552 L 93.829 78.142 L 90.969 78.142 L 90.969 78.962 L 93.459 78.962 L 93.459 80.592 L 90.969 80.592 L 90.969 81.402 L 93.829 81.402 L 93.829 82.992 Z" style="white-space: pre;"/>
    <path d="M 62.15 83.109 L 67.312 69.649 L 72.015 69.649 L 77.198 83.109 L 72.516 83.109 L 71.471 80.434 L 67.856 80.434 L 66.832 83.109 Z M 68.399 77.299 L 70.928 77.299 L 69.653 74.038 Z" style="white-space: pre;"/>
    <path d="M 51.699 83.116 L 51.699 69.656 L 58.972 69.656 Q 60.665 69.656 61.762 70.294 Q 62.86 70.931 63.393 72.039 Q 63.925 73.147 63.925 74.568 Q 63.925 75.926 63.236 76.961 Q 62.546 77.995 61.501 78.602 Q 61.898 78.915 62.17 79.521 L 63.737 83.116 L 59.056 83.116 L 57.676 80.002 Q 57.53 79.688 57.363 79.563 Q 57.196 79.438 56.84 79.438 L 56.192 79.438 L 56.192 83.116 Z M 56.192 75.968 L 57.844 75.968 Q 59.348 75.968 59.348 74.568 Q 59.348 73.147 57.948 73.147 L 56.192 73.147 Z" style="white-space: pre;"/>
  </g>
</svg>