<svg id="visual" viewBox="0 0 900 600" width="900" height="600" xmlns="http://www.w3.org/2000/svg"
     xmlns:xlink="http://www.w3.org/1999/xlink" version="1.1">
    <path d="M0 435L18.8 444C37.7 453 75.3 471 112.8 474.3C150.3 477.7 187.7 466.3 225.2 458.2C262.7 450 300.3 445 337.8 441.2C375.3 437.3 412.7 434.7 450.2 440.8C487.7 447 525.3 462 562.8 468.5C600.3 475 637.7 473 675.2 466.5C712.7 460 750.3 449 787.8 446.7C825.3 444.3 862.7 450.7 881.3 453.8L900 457L900 601L881.3 601C862.7 601 825.3 601 787.8 601C750.3 601 712.7 601 675.2 601C637.7 601 600.3 601 562.8 601C525.3 601 487.7 601 450.2 601C412.7 601 375.3 601 337.8 601C300.3 601 262.7 601 225.2 601C187.7 601 150.3 601 112.8 601C75.3 601 37.7 601 18.8 601L0 601Z"
          fill="#272222"></path>
    <path d="M0 481L18.8 477.8C37.7 474.7 75.3 468.3 112.8 473.7C150.3 479 187.7 496 225.2 504C262.7 512 300.3 511 337.8 504.5C375.3 498 412.7 486 450.2 481.3C487.7 476.7 525.3 479.3 562.8 486.5C600.3 493.7 637.7 505.3 675.2 507.8C712.7 510.3 750.3 503.7 787.8 503.5C825.3 503.3 862.7 509.7 881.3 512.8L900 516L900 601L881.3 601C862.7 601 825.3 601 787.8 601C750.3 601 712.7 601 675.2 601C637.7 601 600.3 601 562.8 601C525.3 601 487.7 601 450.2 601C412.7 601 375.3 601 337.8 601C300.3 601 262.7 601 225.2 601C187.7 601 150.3 601 112.8 601C75.3 601 37.7 601 18.8 601L0 601Z"
          fill="#2c2727"></path>
    <path d="M0 534L18.8 535C37.7 536 75.3 538 112.8 535.3C150.3 532.7 187.7 525.3 225.2 518.2C262.7 511 300.3 504 337.8 508.5C375.3 513 412.7 529 450.2 532C487.7 535 525.3 525 562.8 520C600.3 515 637.7 515 675.2 512C712.7 509 750.3 503 787.8 506.5C825.3 510 862.7 523 881.3 529.5L900 536L900 601L881.3 601C862.7 601 825.3 601 787.8 601C750.3 601 712.7 601 675.2 601C637.7 601 600.3 601 562.8 601C525.3 601 487.7 601 450.2 601C412.7 601 375.3 601 337.8 601C300.3 601 262.7 601 225.2 601C187.7 601 150.3 601 112.8 601C75.3 601 37.7 601 18.8 601L0 601Z"
          fill="#322d2d"></path>
    <path d="M0 543L18.8 544.7C37.7 546.3 75.3 549.7 112.8 550.3C150.3 551 187.7 549 225.2 545.5C262.7 542 300.3 537 337.8 534.7C375.3 532.3 412.7 532.7 450.2 535.8C487.7 539 525.3 545 562.8 547C600.3 549 637.7 547 675.2 544.5C712.7 542 750.3 539 787.8 537.8C825.3 536.7 862.7 537.3 881.3 537.7L900 538L900 601L881.3 601C862.7 601 825.3 601 787.8 601C750.3 601 712.7 601 675.2 601C637.7 601 600.3 601 562.8 601C525.3 601 487.7 601 450.2 601C412.7 601 375.3 601 337.8 601C300.3 601 262.7 601 225.2 601C187.7 601 150.3 601 112.8 601C75.3 601 37.7 601 18.8 601L0 601Z"
          fill="#373232"></path>
</svg>