<svg width="26" height="30" viewBox="0 0 26 30" fill="black" xmlns="http://www.w3.org/2000/svg">
<path fill-rule="evenodd" clip-rule="evenodd" d="M12.9607 0.650223C13.0729 0.650223 13.3084 0.739909 13.4879 0.852016C13.6561 0.964124 15.0581 1.78251 16.5947 2.66816C18.1424 3.55381 19.9258 4.5852 20.5763 4.95516C21.2268 5.33632 22.5951 6.12107 25.5 7.76906V22.2309L23.9186 23.1278C23.0437 23.6211 21.6418 24.417 20.8118 24.9103C19.9706 25.3924 18.7817 26.0762 18.1649 26.435C17.548 26.7937 16.3591 27.4664 15.5292 27.9484C14.6992 28.4305 13.8244 28.935 13.6 29.0807C13.3645 29.2265 13.0729 29.3498 12.9495 29.3498C12.8262 29.3498 12.714 29.3049 12.7028 29.2489C12.6804 29.204 11.312 28.3744 9.64087 27.4215C7.98093 26.4686 5.76021 25.1906 4.70592 24.5852C3.66285 23.9798 2.28331 23.1951 0.5 22.1749L0.544863 7.84753L1.28511 7.3991C1.68887 7.16368 4.39188 5.58296 7.29677 3.89013C10.1904 2.20852 12.6131 0.784752 12.6579 0.739909C12.7028 0.695066 12.8374 0.650223 12.9607 0.650223V0.650223ZM6.64625 8.30717C6.4668 8.40807 6.24249 8.63229 6.14154 8.80045C5.96209 9.08072 5.93966 9.59641 5.90601 14.8318C5.88358 19.7534 5.8948 20.6166 6.05182 21.0314C6.17519 21.3677 6.34343 21.5695 6.64625 21.7489C6.87057 21.8834 7.24069 21.9843 7.45379 21.9843C7.66689 21.9843 8.01458 21.8946 8.21646 21.7937C8.40713 21.6928 8.6651 21.4798 8.77726 21.3117C8.94549 21.0426 8.97914 20.5605 9.024 16.9058C9.06886 13.9238 9.11373 12.8139 9.21467 12.8139C9.28196 12.8139 10.5718 14.2825 12.0747 16.065C13.5664 17.8587 15.2039 19.7982 15.7086 20.3812C16.4376 21.2444 16.7293 21.5022 17.2227 21.7152C17.6377 21.8946 18.0191 21.9731 18.4453 21.9731C18.8154 21.9619 19.1855 21.8722 19.3874 21.7601C19.5668 21.648 19.8024 21.435 19.9258 21.278C20.1276 21.009 20.1389 20.7175 20.1276 15C20.1164 9.91031 20.094 8.9574 19.9482 8.72197C19.8585 8.56502 19.6229 8.34081 19.421 8.2287C19.1967 8.08296 18.8827 8.01569 18.5574 8.0269C18.277 8.03812 17.9406 8.11659 17.806 8.21749C17.6602 8.30717 17.4471 8.55381 17.3237 8.7556C17.1106 9.09193 17.0994 9.31614 17.0994 13.1839C17.0994 15.7735 17.0545 17.2646 16.9872 17.2982C16.9199 17.3318 15.2376 15.3812 13.2299 12.9821C10.4372 9.63004 9.48385 8.55381 9.13616 8.38565C8.88941 8.26233 8.46321 8.11659 8.19403 8.07175C7.92485 8.0269 7.5323 8.01569 7.33042 8.04933C7.11732 8.08296 6.81449 8.19507 6.64625 8.30717Z" fill="white"/>
</svg>
