<?xml version="1.0" encoding="utf-8"?>
<svg viewBox="-156.451 174.347 900 166" width="900" height="166" xmlns="http://www.w3.org/2000/svg">
  <path d="M -156.451 174.347 L -137.651 183.347 C -118.751 192.347 -81.151 210.347 -43.651 213.647 C -6.151 217.047 31.249 205.647 68.749 197.547 C 106.249 189.347 143.849 184.347 181.349 180.547 C 218.849 176.647 256.249 174.047 293.749 180.147 C 331.249 186.347 368.849 201.347 406.349 207.847 C 443.849 214.347 481.249 212.347 518.749 205.847 C 556.249 199.347 593.849 188.347 631.349 186.047 C 668.849 183.647 706.249 190.047 724.849 193.147 L 743.549 196.347 L 743.549 340.347 L 724.849 340.347 C 706.249 340.347 668.849 340.347 631.349 340.347 C 593.849 340.347 556.249 340.347 518.749 340.347 C 481.249 340.347 443.849 340.347 406.349 340.347 C 368.849 340.347 331.249 340.347 293.749 340.347 C 256.249 340.347 218.849 340.347 181.349 340.347 C 143.849 340.347 106.249 340.347 68.749 340.347 C 31.249 340.347 -6.151 340.347 -43.651 340.347 C -81.151 340.347 -118.751 340.347 -137.651 340.347 L -156.451 340.347 L -156.451 174.347 Z" fill="#272222" style="transform-origin: 293.549px 257.347px;" transform="matrix(-1, 0, 0, -1, 0, 0)"/>
  <path d="M -156.451 183.739 L -137.651 180.539 C -118.751 177.439 -81.151 171.039 -43.651 176.439 C -6.151 181.739 31.249 198.739 68.749 206.739 C 106.249 214.739 143.849 213.739 181.349 207.239 C 218.849 200.739 256.249 188.739 293.749 184.039 C 331.249 179.439 368.849 182.039 406.349 189.239 C 443.849 196.439 481.249 208.039 518.749 210.539 C 556.249 213.039 593.849 206.439 631.349 206.239 C 668.849 206.039 706.249 212.439 724.849 215.539 L 743.549 218.739 L 743.549 303.739 L 724.849 303.739 C 706.249 303.739 668.849 303.739 631.349 303.739 C 593.849 303.739 556.249 303.739 518.749 303.739 C 481.249 303.739 443.849 303.739 406.349 303.739 C 368.849 303.739 331.249 303.739 293.749 303.739 C 256.249 303.739 218.849 303.739 181.349 303.739 C 143.849 303.739 106.249 303.739 68.749 303.739 C 31.249 303.739 -6.151 303.739 -43.651 303.739 C -81.151 303.739 -118.751 303.739 -137.651 303.739 L -156.451 303.739 L -156.451 183.739 Z" fill="#2c2727" style="transform-origin: 293.549px 239.043px;" transform="matrix(-1, 0, 0, -1, 0, 0)"/>
  <path d="M -156.451 202.911 L -137.651 203.911 C -118.751 204.911 -81.151 206.911 -43.651 204.211 C -6.151 201.611 31.249 194.211 68.749 187.111 C 106.249 179.911 143.849 172.911 181.349 177.411 C 218.849 181.911 256.249 197.911 293.749 200.911 C 331.249 203.911 368.849 193.911 406.349 188.911 C 443.849 183.911 481.249 183.911 518.749 180.911 C 556.249 177.911 593.849 171.911 631.349 175.411 C 668.849 178.911 706.249 191.911 724.849 198.411 L 743.549 204.911 L 743.549 269.911 L 724.849 269.911 C 706.249 269.911 668.849 269.911 631.349 269.911 C 593.849 269.911 556.249 269.911 518.749 269.911 C 481.249 269.911 443.849 269.911 406.349 269.911 C 368.849 269.911 331.249 269.911 293.749 269.911 C 256.249 269.911 218.849 269.911 181.349 269.911 C 143.849 269.911 106.249 269.911 68.749 269.911 C 31.249 269.911 -6.151 269.911 -43.651 269.911 C -81.151 269.911 -118.751 269.911 -137.651 269.911 L -156.451 269.911 L -156.451 202.911 Z" fill="#322d2d" style="transform-origin: 293.549px 222.129px;" transform="matrix(-1, 0, 0, -1, 0, 0)"/>
  <path d="M -156.451 184.198 L -137.651 185.898 C -118.751 187.498 -81.151 190.898 -43.651 191.498 C -6.151 192.198 31.249 190.198 68.749 186.698 C 106.249 183.198 143.849 178.198 181.349 175.898 C 218.849 173.498 256.249 173.898 293.749 176.998 C 331.249 180.198 368.849 186.198 406.349 188.198 C 443.849 190.198 481.249 188.198 518.749 185.698 C 556.249 183.198 593.849 180.198 631.349 178.998 C 668.849 177.898 706.249 178.498 724.849 178.898 L 743.549 179.198 L 743.549 242.198 L 724.849 242.198 C 706.249 242.198 668.849 242.198 631.349 242.198 C 593.849 242.198 556.249 242.198 518.749 242.198 C 481.249 242.198 443.849 242.198 406.349 242.198 C 368.849 242.198 331.249 242.198 293.749 242.198 C 256.249 242.198 218.849 242.198 181.349 242.198 C 143.849 242.198 106.249 242.198 68.749 242.198 C 31.249 242.198 -6.151 242.198 -43.651 242.198 C -81.151 242.198 -118.751 242.198 -137.651 242.198 L -156.451 242.198 L -156.451 184.198 Z" fill="#373232" style="transform-origin: 293.549px 208.273px;" transform="matrix(-1, 0, 0, -1, 0, 0)"/>
</svg>